<?xml version="1.0" standalone="no"?>
<!DOCTYPE svg PUBLIC "-//W3C//DTD SVG 20010904//EN"
 "http://www.w3.org/TR/2001/REC-SVG-20010904/DTD/svg10.dtd">
<svg version="1.0" xmlns="http://www.w3.org/2000/svg"
 width="904.000000pt" height="904.000000pt" viewBox="0 0 904.000000 904.000000"
 preserveAspectRatio="xMidYMid meet">
<metadata>
Created by potrace 1.14, written by Peter Selinger 2001-2017
</metadata>
<g transform="translate(0.000000,904.000000) scale(0.100000,-0.100000)"
fill="#000000" stroke="none">
<path d="M6500 8925 c-1 -5 -2 -13 -2 -17 1 -3 -5 -12 -13 -18 -8 -7 -15 -19
-15 -27 0 -7 -6 -16 -14 -19 -8 -3 -13 -11 -10 -19 3 -7 -2 -15 -10 -18 -10
-4 -13 -15 -10 -34 3 -21 2 -24 -6 -13 -9 13 -14 7 -11 -12 0 -5 -4 -8 -10 -8
-5 0 -8 -4 -5 -9 4 -5 2 -11 -3 -13 -5 -1 -11 -10 -13 -18 -2 -8 -10 -21 -18
-28 -13 -12 -13 -13 0 -7 12 5 12 4 -1 -7 -9 -7 -18 -17 -20 -23 -2 -5 -7 -9
-11 -8 -4 2 -4 -5 -1 -14 4 -9 2 -14 -3 -10 -6 3 -11 -4 -11 -15 -1 -11 -10
-27 -20 -35 -10 -8 -13 -12 -7 -9 6 3 11 -1 11 -8 0 -8 -7 -12 -15 -8 -10 3
-13 0 -10 -9 3 -8 -2 -20 -11 -27 -13 -11 -13 -12 -1 -7 10 4 9 2 -2 -8 -10
-8 -15 -17 -11 -20 3 -4 -2 -9 -11 -13 -12 -5 -14 -10 -6 -19 8 -10 6 -13 -6
-11 -11 1 -18 -7 -19 -23 -1 -14 -7 -27 -14 -29 -6 -2 -9 -8 -5 -13 3 -5 -2
-12 -10 -15 -9 -3 -13 -10 -10 -15 3 -5 1 -9 -4 -9 -5 0 -12 -8 -14 -17 -9
-34 -11 -38 -27 -51 -13 -11 -13 -12 -1 -7 8 4 6 -1 -5 -10 -11 -9 -20 -19
-20 -23 0 -4 -3 -6 -7 -5 -4 2 -5 -7 -3 -18 2 -11 -2 -22 -10 -26 -8 -3 -12
-9 -9 -14 3 -5 0 -9 -5 -9 -6 0 -11 -7 -11 -15 0 -21 -30 -66 -40 -60 -4 2 -6
-7 -4 -20 1 -16 -2 -23 -9 -18 -6 4 -8 0 -4 -10 3 -9 1 -19 -5 -23 -7 -5 -8
-2 -3 6 5 9 4 11 -3 6 -7 -4 -12 -16 -12 -26 0 -10 -5 -20 -10 -22 -6 -2 -12
-13 -13 -25 -1 -16 -4 -19 -13 -12 -9 8 -11 5 -7 -10 3 -13 0 -23 -10 -27 -9
-3 -14 -14 -12 -25 2 -11 0 -17 -6 -14 -5 4 -9 -1 -9 -9 0 -8 -10 -25 -22 -37
-13 -12 -16 -19 -8 -15 12 6 12 5 -1 -6 -9 -7 -14 -18 -12 -25 2 -6 -6 -18
-19 -27 -15 -11 -17 -16 -8 -16 13 0 13 -2 1 -9 -7 -5 -11 -14 -7 -20 4 -6 2
-9 -6 -6 -7 3 -18 -6 -25 -20 -8 -19 -8 -24 0 -19 7 3 1 -4 -13 -16 -14 -12
-18 -19 -10 -15 10 4 9 2 -2 -8 -10 -8 -14 -17 -10 -21 4 -4 -1 -12 -10 -17
-11 -6 -15 -16 -11 -26 4 -11 3 -14 -5 -9 -8 5 -12 0 -12 -14 0 -12 -4 -18
-10 -15 -5 3 -10 -3 -10 -14 0 -12 -5 -21 -11 -21 -6 0 -9 -7 -5 -15 3 -9 0
-15 -9 -15 -15 0 -19 -11 -16 -39 2 -7 -2 -10 -8 -6 -7 3 -11 -2 -11 -14 0
-11 -7 -24 -16 -29 -9 -5 -17 -13 -17 -18 -1 -5 -6 -8 -12 -6 -5 2 -5 -2 2 -9
10 -10 9 -15 -5 -26 -12 -10 -12 -12 -2 -8 10 4 9 2 -2 -8 -10 -8 -18 -20 -18
-26 0 -7 -4 -9 -10 -6 -5 3 -10 2 -10 -4 0 -5 6 -12 13 -14 7 -3 5 -6 -5 -6
-10 -1 -18 -8 -18 -16 0 -8 -10 -24 -22 -36 -21 -20 -21 -21 -3 -15 19 6 19 5
3 -8 -10 -7 -18 -19 -18 -26 0 -7 -6 -10 -13 -7 -10 4 -13 -2 -9 -20 3 -18 1
-24 -7 -19 -7 5 -11 0 -11 -13 0 -11 -5 -23 -11 -26 -6 -4 -8 -13 -5 -21 3 -8
0 -11 -10 -7 -9 3 -14 -2 -14 -15 0 -12 -8 -26 -17 -31 -14 -8 -15 -11 -3 -11
12 0 11 -3 -3 -11 -9 -6 -15 -14 -12 -20 4 -5 1 -9 -6 -9 -7 0 -10 -3 -6 -6 3
-3 -4 -15 -15 -26 -11 -11 -18 -28 -15 -39 3 -10 2 -17 -2 -16 -3 1 -7 -2 -8
-6 -1 -5 -9 -14 -19 -21 -9 -7 -14 -18 -11 -23 4 -6 0 -13 -8 -17 -8 -3 -15
-15 -15 -27 0 -14 -5 -19 -14 -16 -10 4 -13 1 -10 -8 3 -8 -4 -24 -15 -37 -12
-12 -19 -28 -17 -35 3 -7 1 -13 -5 -13 -6 0 -8 -4 -5 -9 3 -5 -1 -12 -10 -15
-9 -4 -14 -13 -10 -22 3 -8 2 -12 -3 -9 -5 3 -12 -4 -16 -15 -3 -11 -11 -20
-17 -20 -6 0 -5 -6 2 -16 8 -8 9 -14 4 -12 -5 2 -10 -1 -12 -7 -2 -5 -10 -14
-18 -18 -8 -4 -14 -15 -14 -22 0 -8 -6 -15 -12 -15 -9 0 -8 -4 2 -10 13 -8 13
-10 -2 -10 -11 0 -15 -5 -12 -15 4 -8 1 -15 -5 -15 -6 0 -11 -9 -11 -21 0 -14
-5 -19 -14 -16 -10 4 -13 0 -11 -14 2 -11 -2 -22 -10 -25 -8 -3 -11 -13 -8
-21 4 -11 2 -14 -5 -9 -8 5 -12 0 -12 -14 0 -14 -4 -19 -12 -14 -7 4 -10 3 -5
-1 4 -5 0 -19 -8 -32 -9 -13 -12 -23 -8 -23 4 0 -2 -7 -13 -15 -10 -8 -15 -15
-11 -15 5 0 1 -7 -7 -16 -9 -8 -14 -20 -11 -25 4 -5 2 -9 -4 -9 -6 0 -7 -8 -4
-17 6 -16 5 -16 -10 -4 -15 12 -17 11 -15 -10 2 -16 -2 -23 -10 -21 -8 1 -11
-2 -7 -8 4 -6 1 -17 -5 -25 -7 -8 -9 -15 -4 -15 5 0 1 -5 -8 -11 -10 -5 -18
-18 -18 -28 0 -27 -27 -33 -62 -15 -16 9 -27 11 -24 5 4 -6 2 -11 -4 -11 -6 0
-13 6 -16 13 -2 7 -19 13 -37 13 -19 -1 -35 5 -39 14 -5 12 -7 11 -7 -3 -1
-17 -2 -17 -17 -2 -14 13 -19 14 -25 3 -6 -8 -9 -9 -9 -1 0 6 -13 10 -29 9
-17 -1 -28 1 -25 5 2 4 -3 9 -11 13 -8 3 -17 1 -21 -5 -4 -7 -10 -6 -19 1 -7
6 -17 10 -21 9 -28 -5 -54 2 -48 13 5 7 3 8 -7 3 -18 -12 -49 -14 -49 -4 0 4
-10 6 -21 4 -12 -2 -31 0 -41 6 -15 8 -19 8 -14 0 4 -6 2 -11 -3 -11 -6 0 -11
4 -11 8 0 4 -12 7 -27 6 -16 -1 -34 4 -42 10 -17 14 -15 14 -34 -3 -11 -9 -17
-10 -17 -2 0 6 -5 11 -11 11 -5 0 -7 -5 -3 -12 5 -7 3 -8 -7 -2 -19 11 -217
19 -227 9 -3 -2 -13 0 -23 6 -13 7 -19 6 -19 -1 0 -8 -6 -8 -20 0 -15 8 -20 8
-20 -2 0 -9 -3 -9 -10 2 -5 8 -10 10 -10 5 0 -6 -9 -11 -20 -12 -11 -1 -19 1
-16 5 2 4 -7 7 -20 7 -13 0 -24 -3 -24 -7 0 -5 -5 -8 -11 -8 -5 0 -8 4 -5 8 5
9 -47 7 -62 -2 -6 -3 -13 0 -15 6 -4 10 -6 9 -6 -1 -1 -11 -4 -11 -16 -1 -8 7
-15 8 -15 3 0 -6 -18 -7 -42 -4 -24 4 -53 6 -65 5 -13 -1 -23 4 -23 10 0 6 -4
5 -9 -3 -5 -8 -19 -15 -30 -16 -17 -1 -19 1 -8 13 10 13 9 14 -10 4 -28 -15
-36 -15 -27 1 6 9 5 9 -7 0 -8 -7 -37 -12 -65 -11 -27 1 -55 -1 -62 -5 -8 -6
-10 -3 -5 10 5 15 3 16 -8 6 -7 -7 -24 -13 -39 -13 -20 0 -22 2 -10 10 9 6 10
10 3 10 -6 0 -15 -4 -18 -10 -8 -13 -88 -10 -97 4 -5 7 -8 6 -8 -4 0 -13 -1
-13 -10 0 -9 13 -10 13 -10 0 0 -13 -1 -13 -10 0 -9 13 -11 13 -20 0 -9 -13
-11 -13 -20 0 -9 13 -10 13 -10 0 0 -13 -1 -13 -10 0 -9 13 -11 13 -20 0 -9
-13 -10 -13 -10 0 0 13 -1 13 -10 0 -9 -13 -11 -13 -20 0 -9 13 -10 13 -10 0
0 -13 -1 -13 -10 0 -9 13 -11 13 -20 0 -9 -13 -11 -13 -20 0 -9 13 -10 13 -10
0 0 -13 -1 -13 -10 0 -9 13 -11 13 -20 0 -9 -13 -11 -13 -20 0 -9 13 -10 13
-10 0 0 -13 -1 -13 -10 0 -9 13 -11 13 -20 0 -9 -13 -11 -13 -20 0 -9 13 -10
13 -10 0 0 -13 -1 -13 -10 0 -9 13 -10 13 -10 0 0 -13 -1 -13 -10 0 -9 13 -10
13 -10 0 0 -13 -1 -13 -10 0 -9 13 -11 13 -20 0 -9 -13 -11 -13 -20 0 -9 13
-10 13 -10 0 0 -9 -3 -11 -8 -5 -4 7 -55 11 -132 10 -132 -1 -160 2 -160 16 0
5 3 8 8 8 20 -3 32 2 26 13 -4 6 -3 8 4 5 15 -10 43 3 35 16 -4 6 0 8 11 4 11
-4 24 2 37 17 12 14 28 22 35 19 8 -3 14 0 14 7 0 6 5 8 10 5 6 -3 13 0 16 9
3 8 13 17 21 20 13 6 14 4 3 -11 -7 -10 -2 -6 12 8 13 14 29 24 36 21 7 -2 12
1 12 7 0 6 3 10 8 10 20 -3 33 2 27 11 -4 6 7 13 24 16 16 4 32 12 35 20 3 8
10 14 16 14 6 0 8 -6 5 -12 -4 -7 2 -2 14 12 11 14 16 27 11 28 -6 2 -10 8
-10 13 0 6 4 8 8 5 5 -3 9 1 9 9 0 8 -4 15 -9 15 -4 0 -8 5 -8 11 0 5 4 8 8 5
5 -3 9 1 9 9 0 8 -4 15 -9 15 -4 0 -8 5 -8 11 0 5 4 8 8 5 5 -3 9 1 9 9 0 8
-4 15 -9 15 -4 0 -8 5 -8 11 0 5 4 8 8 5 5 -3 9 1 9 9 0 8 -4 15 -9 15 -4 0
-8 5 -8 11 0 5 4 8 8 5 5 -3 9 1 9 9 0 8 -4 15 -9 15 -4 0 -8 5 -8 11 0 5 4 8
8 5 5 -3 9 1 9 9 0 8 -4 15 -9 15 -4 0 -8 5 -8 11 0 5 5 7 10 4 13 -8 9 17 -4
27 -6 4 -4 13 3 22 11 13 11 16 0 16 -11 0 -11 2 1 10 10 6 11 10 3 10 -7 0
-13 5 -13 11 0 5 5 7 10 4 13 -8 8 17 -5 28 -6 4 -4 11 5 17 13 9 13 10 0 10
-13 0 -13 1 0 10 12 8 13 11 1 19 -11 7 -11 9 0 14 10 4 10 6 2 6 -7 1 -13 6
-13 12 0 5 5 7 10 4 13 -8 8 17 -5 28 -6 4 -4 11 5 17 13 9 13 10 0 10 -13 0
-13 1 0 10 12 8 13 11 1 19 -11 7 -11 9 0 14 10 4 10 6 2 6 -7 1 -13 6 -13 12
0 5 4 8 8 5 5 -3 9 1 9 9 0 8 -5 15 -11 15 -6 0 -4 5 4 10 10 6 11 10 3 10 -7
0 -13 5 -13 11 0 5 4 8 8 5 5 -3 9 1 9 9 0 8 -4 15 -9 15 -4 0 -8 5 -8 11 0 5
4 8 8 5 5 -3 9 1 9 9 0 8 -4 15 -9 15 -4 0 -8 5 -8 11 0 5 4 8 8 5 5 -3 9 1 9
9 0 8 -4 15 -9 15 -4 0 -8 5 -8 11 0 5 6 7 13 3 8 -5 8 -2 -2 9 -11 14 -11 17
0 17 12 0 12 2 0 9 -11 7 -11 10 0 15 12 5 12 7 0 12 -11 5 -11 8 0 15 10 6
11 9 2 9 -7 0 -13 5 -13 11 0 5 5 7 10 4 13 -8 8 17 -5 28 -6 4 -4 11 5 17 13
9 13 10 0 10 -13 0 -13 1 0 10 13 9 13 10 0 10 -13 0 -13 1 0 10 13 9 13 10 0
10 -13 0 -13 1 0 10 12 8 13 11 1 19 -11 7 -11 9 0 14 10 4 10 6 2 6 -7 1 -13
6 -13 12 0 5 5 7 10 4 13 -8 8 17 -5 28 -6 4 -4 11 5 17 13 9 13 10 0 10 -13
0 -13 1 0 10 13 9 13 11 1 19 -12 8 -12 12 -2 25 9 11 10 16 2 16 -6 0 -11 5
-11 11 0 5 4 8 8 5 5 -3 9 1 9 9 0 8 -4 15 -9 15 -4 0 -8 5 -8 11 0 5 5 7 10
4 13 -8 9 17 -4 27 -6 4 -4 13 3 22 11 13 11 16 0 16 -11 0 -11 2 1 10 10 6
11 10 3 10 -7 0 -13 5 -13 11 0 5 5 7 10 4 13 -8 8 17 -5 28 -6 4 -4 11 5 17
13 9 13 10 0 10 -13 0 -13 1 0 10 12 8 13 11 1 19 -11 7 -11 9 0 14 10 4 10 6
2 6 -7 1 -13 6 -13 12 0 5 5 7 10 4 13 -8 8 17 -5 28 -6 4 -4 11 5 17 13 9 13
10 0 10 -13 0 -13 1 0 10 12 8 13 11 1 19 -11 7 -11 9 0 14 10 4 10 6 2 6 -7
1 -13 6 -13 12 0 5 4 8 8 5 5 -3 9 1 9 9 0 8 -5 15 -11 15 -6 0 -4 5 4 10 10
6 11 10 3 10 -7 0 -13 5 -13 11 0 5 4 8 8 5 5 -3 9 1 9 9 0 8 -4 15 -9 15 -4
0 -8 5 -8 11 0 5 4 8 8 5 5 -3 9 1 9 9 0 8 -4 15 -9 15 -4 0 -8 5 -8 11 0 5 4
8 8 5 5 -3 9 1 9 9 0 8 -4 15 -9 15 -4 0 -8 5 -8 11 0 5 6 7 13 3 8 -5 8 -2
-2 9 -11 14 -11 17 0 17 12 0 12 2 0 9 -11 7 -11 9 0 14 12 5 12 7 0 15 -11 8
-11 10 0 15 10 4 10 6 2 6 -7 1 -13 6 -13 12 0 5 5 7 10 4 13 -8 8 17 -5 28
-6 4 -4 11 5 17 13 9 13 10 0 10 -13 0 -13 1 0 10 13 9 13 10 0 10 -13 0 -13
1 0 10 13 9 13 10 0 10 -13 0 -13 1 0 10 12 8 13 11 1 19 -11 7 -11 9 0 14 10
4 10 6 2 6 -7 1 -13 6 -13 12 0 5 5 7 10 4 13 -8 8 17 -5 28 -6 4 -4 11 5 17
13 9 13 10 0 10 -13 0 -13 1 0 10 13 9 13 11 1 19 -12 8 -12 12 -2 25 9 11 10
16 2 16 -6 0 -11 5 -11 11 0 5 4 8 8 5 5 -3 9 1 9 9 0 8 -4 15 -9 15 -4 0 -8
5 -8 11 0 5 5 7 10 4 13 -8 9 17 -4 27 -6 4 -4 13 3 22 11 13 11 16 0 16 -11
0 -11 2 1 10 10 6 11 10 3 10 -7 0 -13 5 -13 11 0 5 5 7 10 4 13 -8 8 17 -5
28 -6 4 -4 11 5 17 13 9 13 10 0 10 -13 0 -13 1 0 10 12 8 13 11 1 19 -11 7
-11 9 0 14 10 4 10 6 2 6 -7 1 -13 6 -13 12 0 5 4 8 8 5 5 -3 9 1 9 9 0 8 -4
15 -8 15 -4 0 -9 7 -12 14 -4 10 -1 13 7 10 7 -3 13 2 13 11 0 20 -50 42 -55
25 -3 -7 -11 -5 -23 6 -18 16 -19 16 -14 1 6 -14 2 -15 -24 -7 -22 6 -31 5
-31 -3 0 -7 -4 -6 -10 3 -9 13 -10 13 -10 0 -1 -11 -4 -10 -15 4 -11 15 -15
16 -15 5 0 -15 -43 -19 -56 -6 -4 3 -15 2 -25 -4 -14 -7 -19 -6 -19 3 0 10 -2
10 -8 1 -4 -7 -13 -9 -20 -4 -8 4 -31 5 -52 1 -21 -4 -45 -3 -54 2 -11 6 -16
5 -16 -4 -1 -8 -6 -5 -15 6 -13 18 -15 18 -15 3 0 -15 -4 -16 -20 -7 -15 8
-20 8 -20 -1 0 -8 -4 -8 -15 1 -12 10 -15 10 -15 -1 0 -11 -2 -11 -10 1 -9 13
-10 13 -10 0 -1 -11 -4 -10 -15 4 -13 17 -15 17 -15 3 0 -12 -5 -15 -21 -8
-12 4 -41 4 -66 1 -24 -4 -46 -3 -49 2 -3 4 -14 4 -24 -2 -13 -7 -20 -6 -23 3
-4 9 -6 9 -6 -1 -1 -7 -6 -10 -12 -7 -18 12 -59 13 -59 2 0 -6 -9 -2 -20 8
-18 16 -20 16 -15 2 6 -14 2 -15 -24 -7 -22 6 -31 5 -31 -3 0 -7 -4 -6 -10 3
-9 13 -10 13 -10 0 -1 -11 -4 -10 -15 4 -15 20 -15 20 -15 0 0 -16 -2 -17 -10
-4 -8 12 -10 12 -10 1 0 -11 -5 -10 -20 4 -18 16 -20 16 -15 2 6 -14 2 -15
-24 -7 -22 6 -31 5 -31 -3 0 -7 -4 -6 -10 3 -9 13 -10 13 -10 0 -1 -11 -4 -10
-15 4 -11 15 -15 16 -15 5 0 -15 -43 -19 -56 -6 -4 3 -15 2 -25 -4 -14 -7 -19
-6 -19 3 0 10 -2 10 -8 1 -4 -7 -13 -9 -20 -4 -8 4 -31 5 -52 1 -21 -4 -45 -3
-54 2 -11 6 -16 5 -16 -4 -1 -8 -6 -5 -15 6 -13 18 -15 18 -15 3 0 -15 -4 -16
-20 -7 -15 8 -20 8 -20 -1 0 -8 -4 -8 -15 1 -12 10 -15 10 -15 -1 0 -11 -2
-11 -10 1 -7 11 -10 11 -10 2 0 -10 -5 -10 -21 -1 -13 7 -19 7 -15 1 9 -15 11
-136 2 -150 -4 -7 -4 -12 1 -12 9 0 8 -134 -2 -149 -3 -6 -3 -11 2 -11 9 0 8
-134 -2 -149 -3 -6 -3 -11 2 -11 9 0 8 -134 -2 -149 -3 -6 -3 -11 2 -11 9 0 8
-134 -2 -149 -3 -6 -3 -11 2 -11 9 0 8 -134 -2 -149 -3 -6 -3 -11 2 -11 6 0 9
-112 2 -130 -1 -3 -1 -8 0 -12 5 -38 3 -216 -3 -226 -4 -7 -2 -12 5 -12 8 0 9
-3 0 -13 -6 -8 -8 -16 -5 -20 5 -5 8 -169 4 -192 -1 -5 -2 -13 -1 -17 5 -38 3
-216 -3 -226 -4 -7 -2 -12 5 -12 8 0 9 -3 0 -13 -6 -8 -8 -16 -5 -20 5 -5 8
-169 4 -192 -1 -5 -2 -13 -1 -17 5 -38 3 -216 -3 -226 -4 -7 -2 -12 5 -12 8 0
9 -3 0 -13 -6 -8 -8 -16 -5 -20 5 -5 8 -169 4 -192 -1 -5 -2 -13 -1 -17 5 -38
3 -216 -3 -226 -4 -7 -2 -12 5 -12 8 0 9 -3 0 -13 -6 -8 -8 -16 -5 -20 5 -5 8
-169 4 -192 -1 -5 -2 -13 -1 -17 5 -38 3 -216 -3 -226 -4 -7 -2 -12 5 -12 8 0
9 -3 0 -13 -6 -8 -8 -16 -5 -20 5 -5 8 -169 4 -192 -1 -5 -2 -13 -1 -17 5 -38
3 -156 -3 -166 -4 -7 -4 -12 1 -12 9 0 8 -134 -2 -149 -3 -6 -3 -11 2 -11 9 0
8 -134 -2 -149 -3 -6 -3 -11 2 -11 9 0 8 -134 -2 -149 -3 -6 -3 -11 2 -11 9 0
8 -134 -2 -149 -3 -6 -3 -11 2 -11 9 0 8 -134 -2 -149 -3 -6 -3 -11 2 -11 9 0
8 -134 -2 -149 -3 -6 -3 -11 2 -11 9 0 8 -134 -2 -149 -3 -6 -3 -11 2 -11 6 0
9 -112 2 -130 -1 -3 -1 -8 0 -12 5 -38 3 -216 -3 -226 -4 -7 -2 -12 5 -12 8 0
9 -3 0 -13 -6 -8 -8 -16 -5 -20 5 -5 8 -169 4 -192 -1 -5 -2 -13 -1 -17 5 -38
3 -216 -3 -226 -4 -7 -2 -12 5 -12 8 0 9 -3 0 -13 -6 -8 -8 -16 -5 -20 5 -5 8
-169 4 -192 -1 -5 -2 -13 -1 -17 5 -38 3 -216 -3 -226 -4 -7 -2 -12 5 -12 8 0
9 -3 0 -13 -6 -8 -8 -16 -5 -20 5 -5 8 -169 4 -192 -1 -5 -2 -13 -1 -17 5 -38
3 -216 -3 -226 -4 -7 -2 -12 5 -12 8 0 9 -3 0 -13 -6 -8 -8 -16 -5 -20 5 -5 8
-169 4 -192 -1 -5 -2 -13 -1 -17 5 -38 3 -216 -3 -226 -4 -7 -2 -12 5 -12 8 0
9 -3 0 -13 -6 -8 -8 -16 -5 -20 5 -5 8 -169 4 -192 -1 -5 -2 -13 -1 -17 5 -38
3 -156 -3 -166 -4 -7 -4 -12 1 -12 9 0 8 -134 -2 -149 -3 -6 -3 -11 2 -11 9 0
8 -134 -2 -149 -3 -6 -3 -11 2 -11 9 0 8 -134 -2 -149 -3 -6 -3 -11 2 -11 9 0
8 -134 -2 -149 -3 -6 -3 -11 2 -11 9 0 8 -134 -2 -149 -3 -6 -3 -11 2 -11 9 0
8 -134 -2 -149 -3 -6 -3 -11 2 -11 9 0 8 -134 -2 -149 -3 -6 -3 -11 2 -11 9 0
8 -113 -1 -128 -3 -6 0 -13 6 -15 10 -4 10 -8 -2 -16 -10 -7 238 -10 780 -10
481 0 788 4 779 10 -13 8 -5 14 15 10 5 -1 5 4 -1 11 -14 19 -24 50 -14 44 5
-4 7 12 4 36 -5 32 -3 39 7 33 10 -6 11 -4 4 6 -13 22 -14 42 -1 58 10 12 9
14 -5 9 -14 -6 -15 -2 -8 23 5 16 6 29 3 29 -3 0 0 6 6 14 9 10 8 16 -4 26
-13 11 -13 14 1 27 11 11 12 19 5 26 -16 16 -14 70 2 62 6 -4 3 1 -7 9 -11 9
-15 16 -9 16 6 0 14 7 17 16 3 8 2 13 -3 10 -5 -3 -11 1 -15 9 -3 8 0 17 6 21
7 5 8 2 3 -6 -6 -9 -4 -11 5 -5 10 6 10 10 -2 19 -13 10 -13 13 -1 24 9 9 11
18 4 25 -5 7 -9 28 -7 47 1 19 -2 47 -5 62 -5 17 -3 30 3 34 7 5 8 2 3 -6 -6
-9 -4 -11 5 -5 10 6 10 10 -2 19 -13 10 -13 13 -1 24 9 9 11 18 5 25 -13 18
-13 129 1 146 9 11 9 13 0 8 -6 -4 -14 -3 -18 3 -3 5 -2 10 3 10 6 0 13 7 16
16 3 8 2 13 -3 10 -5 -3 -11 1 -15 9 -3 8 0 17 6 21 7 5 8 2 3 -6 -6 -9 -4
-11 5 -5 10 6 10 10 -2 19 -13 10 -13 13 -1 25 11 10 12 16 4 24 -15 15 -15
70 1 61 7 -5 8 -3 2 7 -13 22 -14 42 -1 58 10 12 9 14 -5 9 -14 -6 -15 -2 -8
23 5 16 6 29 3 29 -3 0 0 6 6 14 9 10 8 16 -4 26 -13 11 -13 14 1 27 9 10 11
19 5 27 -5 6 -8 36 -7 66 1 30 -2 67 -6 82 -4 17 -2 30 4 34 7 5 8 2 3 -6 -6
-9 -4 -11 5 -5 10 6 10 10 -2 19 -13 10 -13 13 -1 24 9 9 11 18 5 25 -5 7 -9
55 -8 107 1 52 -2 107 -6 122 -4 17 -2 30 4 34 7 5 8 2 3 -6 -6 -9 -4 -11 5
-5 10 6 10 10 -2 19 -13 10 -13 13 -1 24 9 9 11 18 5 25 -5 7 -9 55 -8 107 1
52 -2 107 -6 122 -4 17 -2 30 4 34 7 5 8 2 3 -6 -6 -9 -4 -11 5 -5 10 6 10 10
-2 19 -13 10 -13 13 -1 24 9 9 11 18 5 25 -5 7 -9 55 -8 107 1 52 -2 107 -6
122 -4 17 -2 30 4 34 7 5 8 2 3 -6 -6 -9 -4 -11 5 -5 10 6 10 10 -2 19 -13 10
-13 13 -1 24 9 9 11 18 5 25 -5 7 -9 55 -8 107 1 52 -2 107 -6 122 -4 17 -2
30 4 34 7 5 8 2 3 -6 -6 -9 -4 -11 5 -5 10 6 10 10 -2 19 -13 10 -13 13 -1 24
9 9 11 18 5 25 -5 7 -9 55 -8 107 1 52 -2 107 -6 122 -4 17 -2 30 4 34 7 5 8
2 3 -6 -6 -9 -4 -11 5 -5 10 6 10 10 -2 19 -13 10 -13 13 -1 24 9 9 11 18 5
25 -5 7 -9 55 -8 107 1 52 -2 107 -6 122 -4 17 -2 30 4 34 7 5 8 2 3 -6 -6 -9
-4 -11 5 -5 10 6 10 10 -2 19 -13 10 -13 13 -1 24 9 9 11 18 5 25 -5 7 -9 55
-8 107 1 52 -2 107 -6 122 -4 17 -2 30 4 34 7 5 8 2 3 -6 -6 -9 -4 -11 5 -5
10 6 10 10 -2 19 -13 10 -13 13 -1 24 9 9 11 18 5 25 -15 19 -14 149 1 142 6
-4 3 1 -7 9 -11 9 -15 16 -9 16 6 0 14 7 17 16 3 8 2 13 -3 10 -5 -3 -11 1
-15 9 -3 8 0 17 6 21 7 5 8 2 3 -6 -6 -9 -4 -11 5 -5 10 6 10 10 -2 19 -13 10
-13 13 -1 24 9 9 11 18 4 25 -5 7 -8 28 -7 47 1 19 -2 45 -6 58 -6 17 -5 21 5
17 6 -4 3 0 -8 9 -11 8 -25 20 -32 26 -7 5 -17 10 -22 10 -5 0 -17 10 -25 22
-9 12 -16 17 -16 10 0 -6 -4 -12 -10 -12 -5 0 -9 3 -7 8 1 4 -1 7 -5 7 -4 0
-15 10 -23 23 -9 12 -25 22 -36 22 -11 0 -19 7 -19 18 0 14 -2 15 -10 2 -8
-13 -10 -13 -10 2 0 9 -5 20 -12 24 -7 4 -8 3 -4 -4 5 -8 2 -10 -8 -6 -9 3
-13 10 -10 15 3 5 -4 9 -15 9 -11 0 -29 12 -40 26 -12 15 -21 21 -21 15 0 -7
-11 -2 -24 11 -32 31 -66 54 -77 51 -15 -5 -10 14 5 20 7 3 19 0 25 -6 8 -8
11 -7 11 3 0 9 5 8 16 -6 8 -10 13 -14 10 -7 -5 8 23 11 108 11 63 0 118 2
124 6 6 3 13 -2 15 -11 4 -16 5 -16 6 1 1 20 1 20 17 0 8 -10 13 -13 9 -6 -5
9 3 13 27 12 18 0 251 0 518 1 541 1 579 0 599 -15 12 -9 13 -8 6 3 -6 11 -4
13 8 8 9 -3 18 -1 21 6 2 7 5 4 5 -5 1 -21 12 -23 29 -6 7 7 12 8 12 2 0 -5 9
-10 20 -11 13 -1 18 2 14 10 -5 8 -3 8 7 -1 7 -6 25 -12 39 -12 14 0 32 -6 39
-12 11 -10 13 -10 7 0 -4 6 -2 12 3 12 6 0 11 -6 11 -12 0 -9 4 -8 10 2 5 8
10 10 10 4 0 -7 16 -12 37 -12 21 0 39 -5 41 -11 2 -6 8 -11 13 -11 6 0 7 6 3
13 -6 9 -4 9 7 -1 7 -6 28 -12 45 -12 18 0 36 -5 40 -11 3 -6 17 -9 30 -6 13
2 23 1 22 -2 -2 -19 4 -24 12 -11 6 10 10 11 10 3 0 -7 11 -13 25 -13 14 0 28
-6 31 -14 3 -8 15 -11 31 -8 20 4 24 2 18 -8 -6 -10 -3 -12 13 -8 12 4 22 2
22 -4 0 -5 5 -6 10 -3 6 3 10 1 10 -5 0 -6 5 -8 10 -5 6 3 10 1 10 -5 0 -6 5
-8 10 -5 6 4 17 1 25 -5 8 -7 21 -10 29 -7 11 4 13 1 9 -10 -4 -10 -2 -14 4
-10 6 4 16 0 23 -8 7 -8 24 -15 37 -15 17 0 23 -4 20 -14 -4 -10 0 -12 14 -9
11 3 19 0 19 -7 0 -7 6 -10 14 -7 8 3 17 -1 20 -9 3 -8 12 -14 21 -14 8 0 15
-4 15 -9 0 -5 14 -14 30 -21 17 -7 30 -18 30 -24 0 -6 5 -4 10 4 8 13 10 12
10 -3 0 -11 9 -21 20 -24 11 -3 20 -10 20 -16 0 -6 3 -8 6 -4 3 3 16 -5 29
-19 12 -13 27 -24 34 -24 6 0 11 -4 11 -10 0 -5 7 -10 16 -10 8 0 12 -4 9 -10
-3 -6 1 -10 10 -10 8 0 18 -7 21 -15 3 -8 14 -17 25 -20 10 -4 18 -9 16 -13
-1 -4 0 -7 3 -7 11 0 38 -30 33 -37 -2 -5 3 -8 11 -8 9 0 16 -7 16 -16 0 -8 4
-13 9 -10 5 3 11 -4 14 -15 4 -14 11 -20 20 -16 8 3 14 0 13 -6 0 -7 3 -13 8
-14 5 -1 16 -16 24 -33 11 -23 17 -28 23 -18 6 9 9 8 10 -7 1 -11 0 -24 -1
-30 -1 -5 1 -7 5 -3 9 8 35 -16 35 -31 0 -6 9 -16 20 -23 11 -7 20 -18 20 -25
0 -7 5 -13 10 -13 6 0 10 -9 10 -21 0 -11 4 -18 8 -15 5 3 14 -10 21 -29 7
-19 18 -34 24 -32 7 1 11 -4 10 -10 -2 -7 2 -13 8 -13 5 0 8 -4 5 -8 -3 -5 4
-16 15 -25 11 -10 17 -22 14 -27 -3 -6 -1 -10 4 -10 6 0 11 -7 11 -15 0 -8 5
-15 11 -15 6 0 9 -7 5 -15 -3 -8 0 -14 6 -12 12 2 14 -4 17 -39 0 -8 6 -12 11
-9 9 5 15 -15 11 -37 0 -5 4 -8 10 -8 6 0 9 -9 6 -19 -4 -15 -1 -18 12 -14 9
4 13 2 8 -2 -4 -5 1 -17 10 -28 10 -11 12 -17 6 -13 -7 4 -13 2 -13 -3 0 -6 4
-11 9 -11 5 0 11 -14 15 -31 3 -17 10 -28 15 -25 5 3 7 -3 4 -14 -3 -11 0 -20
6 -20 6 0 11 -11 11 -25 0 -14 4 -25 9 -25 5 0 8 -15 7 -34 -1 -27 2 -32 11
-24 10 8 13 5 13 -13 0 -42 3 -59 12 -59 4 0 8 -11 8 -25 0 -14 4 -25 8 -25 4
0 8 -10 9 -22 1 -47 3 -59 11 -54 5 3 9 -1 9 -9 0 -8 -5 -11 -11 -8 -6 4 -5 0
2 -9 10 -13 10 -17 0 -21 -9 -4 -8 -6 3 -6 12 -1 15 -9 13 -31 -2 -17 1 -30 7
-30 7 0 9 -11 7 -25 -3 -13 0 -26 6 -29 7 -3 7 -5 -1 -5 -7 -1 -10 -8 -7 -16
4 -8 11 -12 18 -8 6 4 5 -1 -3 -10 -11 -14 -11 -17 0 -17 11 0 11 -2 -1 -10
-8 -5 -10 -10 -4 -10 6 0 11 -6 11 -12 1 -7 2 -32 4 -56 1 -23 7 -42 13 -42 6
0 4 -5 -4 -10 -12 -8 -12 -10 -1 -10 10 0 11 -3 2 -14 -7 -8 -8 -17 -4 -19 5
-3 10 -22 11 -43 2 -20 5 -41 8 -46 3 -4 -1 -8 -8 -8 -10 0 -10 -2 1 -9 11 -7
11 -9 0 -14 -11 -4 -11 -6 -1 -6 7 -1 10 -6 6 -12 -3 -6 0 -15 7 -20 11 -7 10
-9 -5 -9 -18 0 -18 -1 -3 -18 13 -14 14 -21 5 -30 -9 -9 -9 -12 2 -12 13 0 13
-2 0 -10 -13 -9 -13 -10 0 -10 13 0 13 -1 0 -10 -13 -8 -13 -10 -1 -10 11 0
10 -4 -4 -13 -14 -11 -15 -16 -5 -22 9 -6 11 -4 5 5 -5 8 -4 11 3 7 11 -7 11
-32 -1 -43 -4 -4 -2 -13 4 -20 7 -8 7 -14 -1 -19 -5 -3 -10 -11 -10 -16 0 -6
3 -8 8 -5 4 2 7 -13 7 -34 0 -21 -3 -36 -7 -34 -13 8 -9 -11 4 -24 10 -10 10
-15 -2 -23 -12 -8 -12 -12 -2 -16 10 -4 10 -8 0 -21 -10 -12 -10 -14 -1 -8 9
5 11 2 7 -8 -3 -9 -9 -14 -13 -11 -4 2 -8 -2 -8 -9 0 -8 6 -12 13 -9 12 5 14
-13 2 -32 -7 -13 -4 -52 5 -61 12 -12 8 -26 -5 -18 -9 5 -9 2 1 -9 11 -14 11
-17 0 -17 -10 0 -10 -3 -3 -8 11 -7 11 -38 0 -50 -3 -3 1 -13 10 -23 12 -13
12 -19 3 -25 -8 -5 -10 -3 -4 6 6 9 4 11 -4 5 -9 -5 -10 -10 -2 -18 15 -15 14
-30 -1 -21 -9 5 -9 2 1 -9 11 -14 11 -17 0 -17 -10 0 -10 -3 -3 -8 11 -7 11
-38 0 -50 -3 -3 1 -13 10 -23 12 -13 12 -19 3 -25 -8 -5 -10 -3 -4 6 6 9 4 11
-4 5 -9 -5 -10 -10 -2 -18 15 -15 14 -30 -1 -21 -9 5 -9 2 1 -9 11 -14 11 -17
0 -17 -9 0 -10 -3 -4 -8 13 -10 14 -62 1 -62 -6 0 -5 -4 2 -9 8 -4 14 -12 14
-16 0 -4 -6 -12 -14 -16 -10 -7 -10 -9 0 -9 6 0 12 -7 12 -16 0 -9 -5 -12 -12
-8 -7 5 -8 3 -2 -7 11 -18 12 -48 2 -76 -4 -12 -3 -25 2 -28 7 -4 8 -60 0 -60
-1 0 -3 -8 -5 -18 -2 -9 0 -15 5 -12 4 2 8 -6 8 -20 0 -14 -5 -22 -11 -18 -6
4 -7 1 -1 -8 11 -18 12 -48 2 -76 -4 -12 -3 -25 2 -28 7 -4 8 -60 0 -60 -1 0
-3 -8 -5 -18 -2 -9 0 -15 5 -12 4 2 8 -6 8 -20 -1 -16 -5 -22 -12 -18 -8 5 -8
3 0 -8 12 -17 12 -48 0 -68 -6 -10 -5 -12 2 -7 8 5 12 -1 12 -14 0 -14 -4 -19
-12 -14 -10 6 -10 4 0 -8 10 -13 10 -17 0 -21 -10 -4 -10 -6 0 -6 6 -1 12 -6
12 -12 0 -5 -5 -7 -12 -3 -7 5 -8 3 -2 -7 11 -18 12 -48 2 -76 -4 -12 -3 -25
2 -28 7 -4 8 -60 0 -60 -1 0 -3 -8 -5 -18 -2 -9 0 -15 5 -12 4 2 8 -6 8 -20 0
-14 -5 -22 -11 -18 -6 4 -7 1 -1 -8 11 -18 12 -48 2 -76 -4 -12 -3 -25 2 -28
7 -4 8 -60 0 -60 -1 0 -3 -8 -5 -18 -2 -9 0 -15 5 -12 4 2 8 -6 8 -20 0 -14
-5 -22 -11 -18 -6 4 -7 1 -1 -8 12 -20 12 -79 0 -79 -6 0 -5 -4 2 -9 7 -4 12
-12 11 -17 -6 -33 -7 -33 765 -33 825 1 793 -2 765 51 -8 15 -8 19 0 14 12 -8
11 21 -2 41 -4 6 -3 15 3 18 8 5 8 11 0 20 -8 10 -8 15 0 20 8 5 7 11 -2 23
-10 12 -10 14 0 8 7 -4 12 -1 12 9 0 9 -4 13 -10 10 -7 -4 -7 2 0 19 6 17 6
27 -1 32 -7 4 -6 10 1 19 8 10 8 15 0 20 -8 5 -8 11 -1 19 7 9 7 17 -2 26 -9
10 -9 11 1 6 7 -5 12 -1 12 9 0 9 -4 13 -10 10 -7 -4 -7 3 0 20 12 32 12 38 2
31 -10 -6 -9 30 1 40 12 12 8 26 -5 18 -7 -4 -8 -3 -4 5 11 18 18 63 8 57 -5
-3 -7 5 -6 17 1 12 3 22 4 22 5 0 8 61 2 69 -9 16 -10 46 0 52 4 3 8 10 8 15
0 6 -5 7 -12 3 -7 -4 -8 -3 -4 5 11 18 18 63 8 57 -5 -3 -7 5 -6 17 1 12 3 22
4 22 5 0 8 61 2 69 -9 16 -10 46 0 52 4 3 8 10 8 15 0 6 -5 7 -12 3 -7 -4 -8
-3 -4 5 14 21 18 63 5 56 -8 -6 -8 -2 0 13 8 14 8 23 1 27 -8 5 -8 11 0 20 8
10 8 15 0 20 -8 5 -8 11 -1 19 7 9 7 17 -2 26 -9 10 -9 11 1 6 7 -5 12 -1 12
9 0 9 -4 13 -10 10 -7 -4 -7 2 0 19 6 17 6 27 -1 32 -7 4 -6 10 1 19 8 10 8
15 0 20 -8 5 -8 11 -1 19 7 9 7 17 -2 26 -9 10 -9 11 1 6 7 -5 12 -1 12 9 0 9
-4 13 -10 10 -7 -4 -7 3 0 20 12 32 12 38 2 31 -10 -6 -9 30 1 40 12 12 8 26
-5 18 -7 -4 -8 -3 -4 5 11 18 18 63 8 57 -5 -3 -7 5 -6 17 1 12 3 22 4 22 5 0
8 61 2 69 -9 16 -10 46 0 52 4 3 8 10 8 15 0 6 -5 7 -12 3 -7 -4 -8 -3 -4 5
11 18 18 63 8 57 -5 -3 -7 5 -6 17 1 12 3 22 4 22 5 0 8 61 2 69 -9 16 -10 46
0 52 4 3 8 10 8 15 0 6 -5 7 -12 3 -7 -4 -8 -3 -4 5 14 21 18 63 5 56 -8 -6
-8 -2 0 13 13 25 14 35 3 28 -10 -6 -9 30 1 40 12 12 8 26 -5 18 -7 -4 -8 -3
-4 5 11 18 18 63 8 57 -5 -3 -7 5 -6 17 1 12 3 22 4 22 5 0 8 61 2 69 -9 16
-10 46 0 52 4 3 8 10 8 15 0 6 -5 7 -12 3 -7 -4 -8 -3 -4 5 11 18 18 63 8 57
-5 -3 -7 5 -6 17 1 12 3 22 4 22 5 0 8 61 2 69 -9 16 -10 46 0 52 4 3 8 10 8
15 0 6 -5 7 -12 3 -7 -4 -8 -3 -4 5 14 21 18 63 5 56 -8 -6 -8 -2 0 13 13 25
14 35 3 28 -10 -6 -9 25 2 42 4 7 2 12 -4 12 -6 0 -8 5 -4 12 11 17 13 59 3
52 -12 -7 -11 13 1 37 8 14 7 19 -1 19 -7 0 -9 10 -7 25 3 14 0 25 -6 26 -6 0
-2 4 9 9 16 7 17 9 3 9 -12 1 -15 8 -12 30 3 16 0 32 -6 36 -8 5 -8 10 0 20 7
9 8 15 1 19 -7 4 -7 15 -1 31 6 16 6 27 -2 31 -7 5 -8 3 -3 -6 5 -8 4 -11 -2
-7 -6 4 -9 21 -7 39 2 18 -1 35 -8 40 -10 6 -10 8 -1 8 6 0 11 9 10 20 -1 11
-4 20 -8 20 -5 0 -11 50 -10 93 0 11 -5 15 -12 10 -7 -4 -5 2 3 12 9 11 10 16
3 11 -10 -5 -13 4 -14 36 -1 24 -1 47 0 52 1 5 -6 6 -15 2 -14 -5 -15 -4 -4 9
8 10 9 15 2 15 -6 0 -9 7 -6 15 4 8 0 23 -7 32 -8 9 -9 14 -3 10 6 -3 11 0 11
8 0 8 -4 12 -9 9 -4 -3 -8 7 -8 21 0 17 -4 24 -11 19 -8 -5 -9 -2 -1 12 7 13
6 24 -5 41 -8 13 -11 23 -7 23 5 0 2 5 -6 10 -11 7 -12 10 -2 10 10 0 10 3 -1
15 -9 8 -14 26 -13 40 2 13 -1 22 -5 19 -5 -3 -9 4 -9 16 0 14 -4 19 -12 14
-8 -5 -7 0 2 11 9 11 10 16 3 11 -13 -7 -17 4 -14 32 1 6 -2 12 -6 12 -8 0
-12 15 -15 57 -1 7 -5 10 -10 7 -4 -3 -8 4 -8 15 0 11 -4 23 -10 26 -5 3 -10
16 -10 27 0 11 -8 27 -17 35 -11 8 -12 11 -3 7 12 -7 13 -5 3 8 -7 8 -10 18
-6 21 3 4 1 7 -6 7 -7 0 -11 7 -8 15 4 8 1 17 -5 21 -7 5 -8 2 -3 -6 5 -8 4
-11 -3 -6 -6 3 -9 15 -7 26 2 11 -1 20 -6 20 -6 0 -7 5 -4 10 3 6 -1 10 -9 10
-10 0 -13 6 -10 15 4 8 1 15 -6 15 -7 0 -10 7 -6 15 3 8 1 15 -5 15 -6 0 -8 8
-5 17 4 10 4 14 0 10 -10 -10 -33 24 -34 51 0 12 -6 22 -15 22 -9 0 -12 6 -8
15 3 9 2 15 -3 14 -21 -4 -28 2 -14 11 13 8 12 10 -4 10 -15 0 -16 3 -6 15 10
12 9 15 -4 15 -10 0 -14 5 -11 10 3 6 -1 10 -10 10 -9 0 -13 5 -10 11 4 6 -1
17 -11 25 -11 9 -12 12 -4 8 13 -7 13 -5 1 9 -7 9 -18 14 -24 10 -6 -4 -7 -1
-2 7 5 8 2 18 -9 26 -10 7 -17 14 -16 16 3 6 -35 68 -42 68 -5 0 -8 9 -8 20 0
11 -4 19 -9 17 -5 -1 -9 1 -10 6 -1 15 -26 35 -36 29 -5 -3 -3 3 5 14 8 10 11
16 6 12 -9 -7 -36 15 -36 29 0 5 -9 15 -20 23 -11 8 -20 22 -20 32 0 10 -6 17
-12 15 -7 -1 -12 4 -11 11 2 6 -4 12 -13 12 -8 0 -13 4 -10 8 3 5 -6 16 -19
26 -15 11 -21 24 -18 34 4 10 2 13 -5 8 -18 -11 -57 38 -53 66 0 4 -6 5 -14 2
-10 -4 -15 0 -15 15 0 12 -6 21 -15 21 -8 0 -15 5 -15 11 0 5 -4 7 -10 4 -5
-3 -10 1 -10 9 0 9 -7 16 -16 16 -8 0 -13 3 -11 8 2 4 -6 17 -19 29 -16 16
-24 19 -28 10 -4 -7 -4 -2 -2 11 4 20 2 22 -12 10 -9 -7 -14 -9 -10 -4 8 10
-15 36 -32 36 -6 0 -8 5 -5 10 3 6 -1 10 -9 10 -9 0 -16 8 -16 17 0 9 -3 14
-6 10 -3 -3 -18 7 -32 22 -15 15 -20 18 -12 6 8 -11 -4 -1 -27 22 -23 24 -50
43 -58 43 -9 0 -14 4 -11 9 3 5 -10 16 -29 25 -20 10 -33 21 -30 26 3 5 -4 7
-15 5 -12 -2 -18 0 -15 6 4 5 -9 16 -27 24 -18 8 -28 14 -23 15 6 0 -10 10
-35 21 l-45 20 25 14 c19 10 27 10 32 2 4 -7 8 -8 8 -3 0 5 8 2 17 -5 11 -10
14 -10 9 -1 -9 15 18 16 46 1 16 -9 19 -8 13 2 -6 9 -3 11 8 6 9 -3 19 -1 23
5 5 7 12 5 21 -7 7 -11 13 -14 13 -8 0 6 9 13 20 16 11 3 18 2 15 -3 -3 -4 2
-11 11 -14 10 -4 13 -2 8 6 -5 7 -2 9 8 5 9 -3 21 0 28 6 10 9 11 9 5 -1 -10
-19 66 -7 81 13 6 8 14 13 17 10 4 -3 5 -2 2 2 -3 3 3 16 12 27 17 20 17 20
-1 6 -18 -14 -19 -14 -7 8 7 12 17 20 23 16 6 -4 8 -3 5 3 -4 6 0 16 8 23 12
10 13 16 3 27 -6 8 -7 13 -2 12 23 -4 34 3 34 21 0 11 5 20 12 20 6 0 8 3 5 7
-4 3 1 12 11 19 13 10 14 13 3 14 -9 0 0 13 20 31 19 18 27 28 19 24 -13 -8
-13 -7 -1 8 7 9 10 17 5 17 -5 0 -1 5 9 11 9 5 17 19 17 30 0 11 5 17 10 14 6
-3 10 3 10 15 0 13 4 19 11 14 8 -5 10 1 7 20 -5 23 -3 25 11 14 9 -7 13 -8 8
-3 -4 4 1 17 10 28 10 11 12 17 5 13 -11 -7 -11 -4 0 13 7 12 16 21 20 21 5 0
8 7 8 15 0 8 5 15 11 15 6 0 9 6 6 14 -3 8 1 17 9 20 8 3 14 13 14 23 0 15 2
16 10 3 8 -12 10 -9 10 12 0 16 8 33 19 40 11 6 17 18 13 26 -3 10 -1 13 6 8
8 -5 14 3 18 23 4 17 11 31 16 31 5 0 7 4 4 9 -3 5 1 12 10 15 8 3 12 10 9 16
-3 6 1 13 9 16 9 3 14 10 11 14 -3 4 1 13 9 19 8 7 17 23 20 36 4 14 11 25 17
25 6 0 7 5 4 10 -3 6 -1 10 5 10 7 0 9 7 6 16 -4 11 -2 15 7 11 8 -3 14 3 15
16 0 12 6 23 12 25 5 2 10 10 10 18 0 8 5 14 11 14 6 0 9 6 6 14 -3 8 2 16 15
19 11 3 17 10 14 15 -7 11 18 65 26 56 3 -2 8 2 12 11 3 9 2 14 -2 11 -5 -3
-9 1 -9 8 0 8 6 12 13 9 6 -2 15 1 20 8 5 8 3 10 -7 4 -8 -5 -7 0 4 12 9 11
17 25 17 32 0 6 7 14 15 17 8 4 13 10 10 14 -3 5 -1 11 5 15 6 4 8 10 5 15 -3
4 2 11 11 14 8 3 12 10 9 16 -3 5 -2 10 4 10 5 0 16 14 25 30 8 17 10 27 4 24
-7 -4 -8 -2 -4 4 4 7 14 12 22 12 8 0 12 5 9 11 -4 6 1 17 11 25 11 9 12 12 4
8 -12 -7 -13 -5 -3 8 7 8 9 18 5 22 -4 4 0 6 8 4 8 -1 14 3 12 10 -1 6 2 12 8
12 6 0 9 6 8 13 -2 6 2 11 8 10 8 -1 10 6 6 19 -3 14 -1 19 6 14 7 -4 12 -1
12 8 0 8 10 25 23 37 12 12 15 19 7 15 -9 -5 -9 -2 2 7 10 8 15 17 11 20 -3 4
3 15 14 24 11 10 19 26 17 36 -1 9 1 15 5 12 8 -5 36 44 33 58 -1 4 5 7 13 7
9 0 12 6 9 15 -4 8 -1 15 5 15 6 0 10 6 9 13 -2 6 3 11 10 9 8 -1 11 2 8 7 -7
11 22 71 35 71 5 0 8 3 8 8 -3 19 2 33 10 27 6 -3 8 4 6 15 -2 11 -1 19 3 16
4 -2 12 2 19 9 10 11 10 15 0 18 -7 3 -5 6 5 6 12 1 15 6 11 18 -5 12 -2 15 9
11 8 -4 15 -1 15 8 0 7 -5 11 -11 8 -6 -3 -4 0 5 8 8 7 18 21 22 31 3 9 12 17
18 17 8 0 7 5 -2 17 -10 11 -10 14 -1 9 11 -7 17 5 13 27 -1 5 3 6 8 2 6 -3
15 4 21 15 6 11 8 20 4 20 -4 0 3 12 17 27 13 14 17 23 9 19 -8 -4 -5 1 6 11
12 10 20 26 19 35 -2 11 2 15 13 11 12 -5 14 -1 10 15 -4 12 -1 25 4 29 7 3 8
1 4 -5 -4 -7 -5 -12 -2 -12 7 0 36 61 36 77 0 8 5 11 12 7 7 -5 9 -2 5 9 -3 9
1 18 10 21 9 4 13 9 10 12 -3 4 -1 12 6 20 33 37 37 44 27 44 -6 0 -8 5 -5 10
4 6 11 8 16 5 5 -4 9 3 9 15 0 12 4 18 10 15 6 -4 10 -3 9 2 -4 14 20 63 30
63 6 0 8 7 5 15 -4 8 -1 15 6 15 7 0 10 7 6 15 -3 8 0 14 7 12 7 -1 12 8 11
19 0 14 4 20 13 17 9 -3 12 1 10 13 -4 31 -16 43 -36 39 -11 -2 -22 3 -25 12
-4 9 -13 13 -22 9 -15 -6 -15 -4 -3 11 8 9 9 14 2 10 -14 -9 -45 2 -38 13 3 4
-2 11 -11 14 -9 3 -12 2 -8 -5 3 -6 -3 -5 -15 3 -12 7 -21 16 -21 21 0 4 -4 5
-10 2 -5 -3 -10 -1 -10 5 0 6 -4 8 -10 5 -5 -3 -10 1 -10 11 0 11 -6 15 -20
11 -13 -3 -20 0 -20 10 0 8 -4 12 -9 8 -6 -3 -19 4 -29 15 -11 12 -29 22 -40
23 -11 0 -20 6 -19 11 1 6 -4 10 -11 11 -7 0 -16 5 -20 10 -4 6 -14 10 -22 10
-8 0 -14 6 -13 13 2 7 -7 12 -23 12 -14 0 -23 4 -19 10 3 6 -1 10 -10 10 -9 0
-23 7 -32 15 -8 8 -19 13 -23 10 -5 -3 -15 3 -22 15 -7 11 -20 20 -28 20 -9 0
-22 9 -30 20 -10 14 -16 16 -22 7 -6 -9 -8 -9 -8 1 0 6 -7 12 -16 12 -8 0 -13
4 -10 8 3 5 -10 15 -29 22 -19 7 -31 18 -28 23 3 6 1 7 -5 3 -6 -3 -17 1 -25
9 -9 8 -22 15 -29 15 -8 0 -20 9 -28 20 -10 14 -16 16 -22 7 -6 -9 -8 -9 -8 1
0 7 -4 10 -10 7 -5 -3 -10 1 -10 9 0 14 -12 20 -32 17 -5 0 -8 3 -8 9 0 6 -7
10 -16 10 -8 0 -13 4 -10 9 3 5 -1 12 -10 15 -10 4 -13 2 -9 -7 4 -6 0 -4 -8
5 -11 14 -16 15 -26 5 -7 -7 -12 -7 -11 -2 5 23 -1 36 -12 33 -7 -3 -18 0 -25
6 -37 33 -45 37 -59 32 -8 -3 -13 -2 -10 2 3 5 -4 16 -15 25 -10 9 -19 14 -19
10 0 -3 -9 2 -20 12 -15 14 -20 15 -21 4 0 -8 -4 -5 -9 6 -4 11 -22 29 -40 39
-18 10 -30 14 -26 7 4 -6 2 -11 -3 -11 -6 0 -11 7 -11 15 0 8 -9 15 -21 15
-13 0 -18 4 -13 12 5 8 2 9 -9 5 -12 -4 -17 -1 -17 11 0 13 -2 14 -9 3 -7 -11
-9 -11 -14 0 -3 8 -6 10 -7 4z"/>
<path d="M5915 5380 c3 -5 8 -10 11 -10 2 0 4 5 4 10 0 6 -5 10 -11 10 -5 0
-7 -4 -4 -10z"/>
</g>
</svg>
